<svg height="512" viewBox="0 0 512 512" width="512" xmlns="http://www.w3.org/2000/svg" xmlns:xlink="http://www.w3.org/1999/xlink"><linearGradient id="a" gradientUnits="userSpaceOnUse" x1="18.912" x2="522.186" y1="462.955" y2="-40.318" data-name="New Gradient Swatch 1"><stop offset="0" stop-color="#003f8a"/><stop offset=".518" stop-color="#00d7df"/><stop offset="1" stop-color="#006df0"/></linearGradient><linearGradient id="b" x1="-14.021" x2="489.252" xlink:href="#a" y1="430.021" y2="-73.252"/><linearGradient id="c" x1="33.979" x2="537.252" xlink:href="#a" y1="478.021" y2="-25.252"/><linearGradient id="d" x1="55.979" x2="559.252" xlink:href="#a" y1="500.021" y2="-3.252"/><g><path d="m476 56h-440a28.031 28.031 0 0 0 -28 28v280a28.031 28.031 0 0 0 28 28h160.18l-9.6 24h-42.58a8 8 0 0 0 -8 8v16h-48a8 8 0 0 0 0 16h336a8 8 0 0 0 0-16h-48v-16a8 8 0 0 0 -8-8h-42.58l-9.6-24h160.18a28.031 28.031 0 0 0 28-28v-280a28.031 28.031 0 0 0 -28-28zm-116 376v8h-208v-8zm-156.18-16 9.6-24h85.16l9.6 24zm284.18-52a12.01 12.01 0 0 1 -12 12h-440a12.01 12.01 0 0 1 -12-12v-20h464zm0-36h-464v-244a12.01 12.01 0 0 1 12-12h440a12.01 12.01 0 0 1 12 12z" fill="url(#a)"/><path d="m256 232a72 72 0 1 0 -72-72 72.081 72.081 0 0 0 72 72zm-31.929-26.032a31.994 31.994 0 0 1 63.858 0 55.824 55.824 0 0 1 -63.858 0zm15.929-61.968a16 16 0 1 1 16 16 16.019 16.019 0 0 1 -16-16zm16-40a55.955 55.955 0 0 1 45.478 88.617 48.183 48.183 0 0 0 -22.258-26.633 32 32 0 1 0 -46.42.016 48.234 48.234 0 0 0 -22.259 26.637 55.955 55.955 0 0 1 45.459-88.637z" fill="url(#b)"/><path d="m304 248h-96a8 8 0 0 0 0 16h96a8 8 0 0 0 0-16z" fill="url(#c)"/><path d="m288 280h-64a8 8 0 0 0 -8 8v24a8 8 0 0 0 8 8h64a8 8 0 0 0 8-8v-24a8 8 0 0 0 -8-8zm-8 24h-48v-8h48z" fill="url(#d)"/></g></svg>